Coordinates
version=1
nRows=13
nColumns=40
inDegrees=yes

Units are S.I. units (second, meters, Newtons, ...)
Angles are in degrees.

endheader
time	pelvis_tilt	pelvis_list	pelvis_rotation	pelvis_tx	pelvis_ty	pelvis_tz	hip_flexion_r	hip_adduction_r	hip_rotation_r	knee_angle_r	knee_angle_r_beta	ankle_angle_r	subtalar_angle_r	mtp_angle_r	hip_flexion_l	hip_adduction_l	hip_rotation_l	knee_angle_l	knee_angle_l_beta	ankle_angle_l	subtalar_angle_l	mtp_angle_l	lumbar_extension	lumbar_bending	lumbar_rotation	arm_flex_r	arm_add_r	arm_rot_r	elbow_flex_r	pro_sup_r	wrist_flex_r	wrist_dev_r	arm_flex_l	arm_add_l	arm_rot_l	elbow_flex_l	pro_sup_l	wrist_flex_l	wrist_dev_l
      0.53000000	     -0.91570801	     -0.69192708	      3.43132457	     -0.72351284	      0.89530697	      1.07186817	     27.67234234	     -5.62904652	    -12.13951830	    -53.32043562	     -0.93061716	      3.77211362	    -16.96557971	     19.76692514	      7.40757902	      0.00521610	      8.95032760	    -27.56796130	     -0.48115169	     14.63800434	      4.15080852	      0.72887511	     -7.19027255	     -0.02315806	     -8.25209325	     -5.23299523	     -5.68602398	    -22.52408899	     23.45857033	     89.95437384	      0.00000000	      0.00000000	      7.00838878	     13.69666006	     12.89578493	     43.17919978	     89.95437384	      0.00000000	      0.00000000
      0.54000000	     -0.29673722	     -1.11997116	      3.63684195	     -0.71371456	      0.89593627	      1.07229324	     27.05221236	     -5.01001562	    -12.54002102	    -49.93368965	     -0.87150729	      4.10258405	    -16.83451875	     20.21292148	      5.79697835	      0.68015564	      9.07259484	    -27.08473210	     -0.47271775	     14.78010397	      3.20787059	     -0.27355117	     -7.91138306	      0.53532681	     -8.53413284	     -5.22075351	     -5.61223710	    -22.54913586	     22.81448950	     89.95437384	      0.00000000	      0.00000000	      7.42097359	     13.66264897	     13.46257814	     44.16957423	     89.95437384	      0.00000000	      0.00000000
      0.55000000	     -0.30582515	     -1.19477145	      3.85599665	     -0.70437619	      0.89536233	      1.07250126	     27.23360656	     -4.90776001	    -12.82206416	    -46.75122124	     -0.81596274	      4.30708981	    -16.48296493	     20.22605904	      5.06157062	      0.86096581	      9.07578388	    -26.92126442	     -0.46986470	     14.96092613	      2.84796298	     -0.84065078	     -7.95746404	      0.66246489	     -8.81835757	     -5.35100287	     -5.46372973	    -22.72397054	     22.25080123	     89.95437384	      0.00000000	      0.00000000	      7.73756757	     13.72785135	     13.72892106	     45.16807475	     89.95437384	      0.00000000	      0.00000000
      0.56000000	     -0.62083307	     -1.07286466	      4.02165876	     -0.69512169	      0.89420879	      1.07282444	     27.76771120	     -5.04669304	    -13.01683380	    -43.61157060	     -0.76116550	      4.22511979	    -15.93218743	     20.09789188	      4.62036967	      0.77062078	      8.98719468	    -26.70326999	     -0.46605998	     15.20275356	      2.52107816	     -1.09218452	     -7.64779437	      0.54530695	     -9.05588450	     -5.58712016	     -5.35390191	    -22.66149102	     21.74808604	     89.95437384	      0.00000000	      0.00000000	      7.98358898	     13.93116339	     13.70789381	     46.11200298	     89.95437384	      0.00000000	      0.00000000
      0.57000000	     -0.47130298	     -1.24962507	      4.31677351	     -0.68546472	      0.89385619	      1.07305403	     27.52485220	     -4.93725008	    -13.74362946	    -40.10555111	     -0.69997392	      3.73070152	    -15.34339600	     20.07341271	      3.65186270	      1.13406652	      9.07890577	    -26.46761933	     -0.46194710	     15.37495397	      2.10486773	     -1.52768517	     -7.82458278	      0.82079775	     -9.41945104	     -5.67953697	     -5.27254962	    -22.68275340	     21.18158060	     89.95437384	      0.00000000	      0.00000000	      8.27836216	     13.90018530	     14.15782741	     46.97448682	     89.95437384	      0.00000000	      0.00000000
      0.58000000	     -0.48860025	     -1.31058698	      4.49638991	     -0.67584863	      0.89312962	      1.07362466	     27.50893764	     -4.88837446	    -14.29662447	    -36.73038790	     -0.64106620	      3.42242903	    -14.21479639	     19.72565989	      2.91797638	      1.43363852	      9.47007824	    -26.35356862	     -0.45995654	     15.36982558	      1.39170582	     -2.16745807	     -7.83232106	      0.92338870	     -9.59722778	     -5.91579058	     -5.17445451	    -22.60530618	     20.79544160	     89.95437384	      0.00000000	      0.00000000	      8.53025017	     13.98512662	     14.26122585	     47.88542811	     89.95437384	      0.00000000	      0.00000000
      0.59000000	     -0.67261415	     -1.31631978	      4.66900251	     -0.66618195	      0.89214204	      1.07398345	     27.64241182	     -4.97824862	    -14.98785319	    -33.50252366	     -0.58472935	      3.18787182	    -12.80656895	     18.96793438	      2.29622772	      1.67722942	     10.01059302	    -26.09722678	     -0.45548253	     15.26346371	      0.22641759	     -3.45159678	     -7.61365080	      1.00327063	     -9.77803589	     -6.11393159	     -5.11887316	    -22.74947312	     20.36120811	     89.95437384	      0.00000000	      0.00000000	      8.73207976	     14.04791272	     14.26667681	     48.69417585	     89.95437384	      0.00000000	      0.00000000
      0.60000000	     -1.07493912	     -1.17629424	      4.87245568	     -0.65676833	      0.89080301	      1.07436651	     28.04704304	     -5.26329828	    -15.67937146	    -30.49447818	     -0.53222905	      2.97921555	    -11.37108680	     18.62412899	      2.01963034	      1.65762490	     10.23852387	    -26.01902421	     -0.45411764	     15.25416099	     -0.03806450	     -3.73034752	     -7.18497911	      0.89025241	    -10.03253015	     -6.30579474	     -5.03987745	    -22.81088600	     19.91418338	     89.95437384	      0.00000000	      0.00000000	      8.90085802	     13.99538099	     14.66035380	     49.50640303	     89.95437384	      0.00000000	      0.00000000
      0.61000000	     -1.56803514	     -0.83582872	      5.04985227	     -0.64741436	      0.88932252	      1.07461411	     28.61063984	     -5.74549835	    -16.18236415	    -27.86522663	     -0.48633995	      2.97108649	    -10.16371742	     18.37502251	      1.78044910	      1.40234703	     10.50632628	    -25.89694900	     -0.45198703	     15.25481424	     -0.42244326	     -3.86662932	     -6.66261416	      0.57478090	    -10.23151450	     -6.60608999	     -4.93904859	    -22.89568545	     19.70602486	     89.95437384	      0.00000000	      0.00000000	      9.05326704	     14.04127299	     14.77071578	     50.28611210	     89.95437384	      0.00000000	      0.00000000
      0.62000000	     -1.53593210	     -1.04820506	      5.26033056	     -0.63711622	      0.88860841	      1.07531360	     28.41801051	     -5.76212924	    -17.72364935	    -25.41147382	     -0.44351389	      3.36002904	     -7.15782036	     17.50712855	      0.98709077	      2.03506357	     11.24922804	    -25.89513026	     -0.45195528	     15.02057396	     -1.53356600	     -4.40444376	     -6.58027690	      0.89416562	    -10.44375371	     -6.65420984	     -4.91909546	    -23.21244016	     19.05184246	     89.95437384	      0.00000000	      0.00000000	      9.05225539	     13.90223327	     15.23982651	     51.14117027	     89.95437384	      0.00000000	      0.00000000
      0.63000000	     -1.62802072	     -0.90840472	      5.41378081	     -0.62681086	      0.88761775	      1.07591750	     28.53995067	     -6.25217993	    -19.34553220	    -23.71723519	     -0.41394384	      3.90269164	     -3.82905888	     15.81938012	      0.26574245	      2.36433743	     12.44660992	    -25.75337845	     -0.44948125	     14.28399606	     -3.93109872	     -5.43306192	     -6.38861366	      0.83493863	    -10.50280473	     -6.96891949	     -4.85012586	    -23.43530211	     18.83883334	     89.95437384	      0.00000000	      0.00000000	      9.05204885	     13.90241709	     15.26504383	     51.95788668	     89.95437384	      0.00000000	      0.00000000
      0.64000000	     -1.86516423	     -0.88758805	      5.59293457	     -0.61656967	      0.88639806	      1.07670907	     28.78620589	     -6.47760949	    -20.52553747	    -22.19453729	     -0.38736775	      4.01263139	     -1.59824788	     14.13206634	     -0.15547978	      2.72977887	     13.17989113	    -25.86774525	     -0.45147732	     13.86506238	     -5.16276430	     -6.54567478	     -6.00058755	      0.88940947	    -10.61124104	     -7.22690437	     -4.80742552	    -23.60962987	     18.53603777	     89.95437384	      0.00000000	      0.00000000	      9.02238630	     13.83602339	     15.43811887	     52.64672945	     89.95437384	      0.00000000	      0.00000000
      0.65000000	     -2.05260032	     -0.83832280	      5.77004289	     -0.60616218	      0.88528843	      1.07753558	     28.94585821	     -6.65459894	    -21.35320146	    -21.02312279	     -0.36692271	      4.29261325	      0.08164843	     12.28920357	     -0.62118154	      3.00731777	     13.58852650	    -25.98513547	     -0.45352617	     13.39584991	     -6.03249407	     -7.66253888	     -5.64374810	      0.92086500	    -10.68579062	     -7.45069101	     -4.75596307	    -24.03325680	     18.23983083	     89.95437384	      0.00000000	      0.00000000	      8.98570816	     13.70280703	     15.68571927	     53.27322815	     89.95437384	      0.00000000	      0.00000000
